<svg width="395" height="402" viewBox="0 0 395 402" fill="none" xmlns="http://www.w3.org/2000/svg">
<path d="M395 307.45H0V307.651H395V307.45Z" fill="#EBEBEB"/>
<path d="M249.379 312.925H229.266V313.126H249.379V312.925Z" fill="#EBEBEB"/>
<path d="M359.798 317.274H312.137V317.475H359.798V317.274Z" fill="#EBEBEB"/>
<path d="M224.984 313.021H175.743V313.222H224.984V313.021Z" fill="#EBEBEB"/>
<path d="M143.812 319.035H133.51V319.236H143.812V319.035Z" fill="#EBEBEB"/>
<path d="M200.731 319.035H153.821V319.236H200.731V319.035Z" fill="#EBEBEB"/>
<path d="M71.8189 315.642H41.4434V315.843H71.8189V315.642Z" fill="#EBEBEB"/>
<path d="M187.23 271.591H34.6889C33.4939 271.589 32.3486 271.104 31.5043 270.244C30.6601 269.383 30.1859 268.216 30.1859 267V48.7706C30.1963 47.5614 30.6751 46.4052 31.5182 45.5532C32.3613 44.7011 33.5007 44.222 34.6889 44.22H187.23C188.426 44.22 189.574 44.7036 190.42 45.5646C191.266 46.4255 191.741 47.5932 191.741 48.8108V267C191.741 268.218 191.266 269.386 190.42 270.247C189.574 271.107 188.426 271.591 187.23 271.591ZM34.6889 44.3808C33.5463 44.3829 32.4512 44.8463 31.644 45.6694C30.8368 46.4924 30.3834 47.6077 30.3834 48.7706V267C30.3834 268.163 30.8368 269.279 31.644 270.102C32.4512 270.925 33.5463 271.388 34.6889 271.39H187.23C188.373 271.388 189.469 270.925 190.278 270.102C191.086 269.279 191.541 268.164 191.543 267V48.7706C191.541 47.607 191.086 46.4917 190.278 45.6689C189.469 44.8461 188.373 44.3829 187.23 44.3808H34.6889Z" fill="#EBEBEB"/>
<path d="M358.115 271.591H205.566C204.37 271.589 203.224 271.105 202.379 270.244C201.533 269.384 201.057 268.217 201.055 267V48.7706C201.067 47.5607 201.548 46.4045 202.392 45.5527C203.237 44.7009 204.377 44.222 205.566 44.22H358.115C359.302 44.2242 360.439 44.7042 361.281 45.556C362.122 46.4078 362.6 47.5628 362.61 48.7706V267C362.61 268.215 362.137 269.38 361.294 270.241C360.452 271.101 359.309 271.587 358.115 271.591ZM205.566 44.3808C204.423 44.3829 203.327 44.8461 202.518 45.6689C201.71 46.4917 201.255 47.607 201.253 48.7706V267C201.255 268.164 201.71 269.279 202.518 270.102C203.327 270.925 204.423 271.388 205.566 271.39H358.115C359.258 271.388 360.354 270.925 361.163 270.102C361.971 269.279 362.426 268.164 362.428 267V48.7706C362.426 47.607 361.971 46.4917 361.163 45.6689C360.354 44.8461 359.258 44.3829 358.115 44.3808H205.566Z" fill="#EBEBEB"/>
<path d="M154.808 237.719H102.352L99.1687 200.333H151.625L154.808 237.719Z" fill="#E6E6E6"/>
<path d="M157.526 237.719H105.07L101.886 200.333H154.342L157.526 237.719Z" fill="#F0F0F0"/>
<path d="M112.243 229.687L110.489 208.357H147.169L148.923 229.687H112.243Z" fill="white"/>
<path d="M166.603 237.719H160.449V307.45H166.603V237.719Z" fill="#E6E6E6"/>
<path d="M168.547 237.719H164.273V307.45H168.547V237.719Z" fill="#F0F0F0"/>
<path d="M108.973 245.413H168.546V237.719H108.973V245.413Z" fill="#F0F0F0"/>
<path d="M111.074 245.413H104.92V307.45H111.074V245.413Z" fill="#E6E6E6"/>
<path d="M113.017 245.413H108.743V307.45H113.017V245.413Z" fill="#F0F0F0"/>
<path d="M67.2685 245.413H61.1144V307.45H67.2685V245.413Z" fill="#E6E6E6"/>
<path d="M69.2119 245.413H64.938V307.45H69.2119V245.413Z" fill="#F0F0F0"/>
<path d="M127.656 245.413H121.502V307.45H127.656V245.413Z" fill="#E6E6E6"/>
<path d="M129.592 245.413H125.318V307.45H129.592V245.413Z" fill="#F0F0F0"/>
<path d="M108.973 237.719H61.1144V245.413H108.973V237.719Z" fill="#E6E6E6"/>
<path d="M287.434 63.8456H102.313V168.735H287.434V63.8456Z" fill="#E0E0E0"/>
<path d="M297.601 63.8456H103.245V168.735H297.601V63.8456Z" fill="#F5F5F5"/>
<path d="M294.425 165.503V67.0776L106.421 67.0776V165.503H294.425Z" fill="white"/>
<path d="M182.545 165.503L218.04 67.0776H159.462L123.967 165.503H182.545Z" fill="#F5F5F5"/>
<path d="M238.928 165.503L274.422 67.0776H230.23L194.735 165.503H238.928Z" fill="#F5F5F5"/>
<path d="M346.107 207.271H330.37V307.45H346.107V207.271Z" fill="#E6E6E6"/>
<path d="M341.967 307.45H346.107V299.739H337.63L341.967 307.45Z" fill="#FAFAFA"/>
<path d="M201.015 207.271H185.279V307.45H201.015V207.271Z" fill="#E6E6E6"/>
<path d="M346.107 207.271H197.405V305.367H346.107V207.271Z" fill="#FAFAFA"/>
<path d="M343.294 238.925H200.225V211.219H343.294V238.925ZM201.015 238.121H342.504V212.023H201.015V238.121Z" fill="#E6E6E6"/>
<path d="M318.109 224.67H228.184C224.012 224.67 219.991 221.245 217.124 215.263L216.855 214.692H329.43L329.161 215.263C326.27 221.245 322.32 224.67 318.109 224.67ZM218.151 215.472C220.821 220.803 224.471 223.842 228.184 223.842H318.109C321.838 223.842 325.472 220.803 328.142 215.472H218.151Z" fill="#E6E6E6"/>
<path d="M201.545 307.45H197.405V299.739H205.882L201.545 307.45Z" fill="#FAFAFA"/>
<path d="M343.294 270.144H200.225V242.47H343.294V270.144ZM201.015 269.34H342.504V243.274H201.015V269.34Z" fill="#E6E6E6"/>
<path d="M318.109 255.921H228.184C224.012 255.921 219.991 252.488 217.124 246.514L216.855 245.936H329.43L329.161 246.514C326.27 252.456 322.32 255.921 318.109 255.921ZM218.151 246.74C220.821 252.07 224.471 255.117 228.184 255.117H318.109C321.838 255.117 325.472 252.07 328.142 246.74H218.151Z" fill="#E6E6E6"/>
<path d="M343.294 301.42H200.225V273.714H343.294V301.42ZM201.015 300.616H342.504V274.518H201.015V300.616Z" fill="#E6E6E6"/>
<path d="M318.109 287.165H228.184C224.012 287.165 219.991 283.74 217.124 277.766L216.855 277.187H329.43L329.161 277.766C326.27 283.74 322.32 287.165 318.109 287.165ZM218.151 277.991C220.821 283.322 224.471 286.361 228.184 286.361H318.109C321.838 286.361 325.472 283.322 328.142 277.991H218.151Z" fill="#E6E6E6"/>
<path d="M95.5742 220.521V222.467H94.3576L93.3464 237.719H78.4628L77.4595 222.467H76.235V220.521H95.5742Z" fill="#E6E6E6"/>
<path d="M90.6762 182.677C89.4596 173.592 77.4121 171.003 62.1256 170.665C47.5817 170.351 42.9207 165.117 42.9207 165.117C42.9207 165.117 42.9681 186.319 63.9268 194.005C83.8269 201.289 91.9007 191.778 90.6762 182.677Z" fill="#E6E6E6"/>
<path d="M83.2502 203.267C83.503 199.537 89.3648 192.671 103.466 195.79C113.657 198.049 117.449 192.671 117.449 192.671C117.449 192.671 116.501 207.85 101.175 212.409C86.6156 216.742 82.7999 209.844 83.2502 203.267Z" fill="#E6E6E6"/>
<path d="M86.4655 226.245C86.5449 226.246 86.6235 226.229 86.6958 226.196C86.7681 226.163 86.8324 226.114 86.8842 226.053C87.9033 224.822 87.0659 221.88 85.9125 217.803C84.4273 212.577 82.5787 206.065 84.1429 201.346C85.0099 198.853 86.0229 196.415 87.1765 194.045C89.3885 189.286 91.3003 185.201 89.7045 180.876C89.6796 180.807 89.6416 180.744 89.5925 180.69C89.5435 180.636 89.4845 180.593 89.419 180.563C89.3534 180.532 89.2826 180.515 89.2105 180.513C89.1385 180.511 89.0668 180.523 88.9994 180.549C88.9321 180.575 88.8704 180.614 88.8181 180.665C88.7658 180.715 88.7238 180.776 88.6946 180.843C88.6654 180.91 88.6496 180.982 88.648 181.055C88.6464 181.129 88.6591 181.201 88.6854 181.27C90.1153 185.121 88.3852 188.851 86.189 193.579C85.0208 195.987 83.992 198.462 83.108 200.992C81.4411 206.041 83.3371 212.738 84.8618 218.109C85.7624 221.325 86.6946 224.541 86.0547 225.345C86.0039 225.401 85.965 225.466 85.9405 225.538C85.916 225.609 85.9064 225.686 85.9124 225.761C85.9183 225.837 85.9397 225.91 85.975 225.977C86.0104 226.044 86.0591 226.102 86.1179 226.149C86.2188 226.222 86.342 226.256 86.4655 226.245Z" fill="#E6E6E6"/>
<path d="M197.5 343.758C282.095 343.758 350.673 339.683 350.673 334.657C350.673 329.63 282.095 325.556 197.5 325.556C112.905 325.556 44.3269 329.63 44.3269 334.657C44.3269 339.683 112.905 343.758 197.5 343.758Z" fill="#F5F5F5"/>
<path d="M197.468 290.284H85.2884L79.1501 106.675H191.33L197.468 290.284Z" fill="#407BFF"/>
<path d="M203.069 284.584H90.8895L84.7433 100.974H196.923L203.069 284.584Z" fill="#407BFF"/>
<path opacity="0.3" d="M203.069 284.584H90.8895L84.7433 100.974H196.923L203.069 284.584Z" fill="white"/>
<path d="M165.483 176.529C177.495 164.094 176.984 143.761 164.342 131.113C151.7 118.466 131.715 118.294 119.704 130.729C107.693 143.164 108.204 163.497 120.845 176.145C133.487 188.792 153.472 188.964 165.483 176.529Z" fill="#407BFF"/>
<path d="M168.641 153.636C168.803 158.011 167.865 162.356 165.916 166.259C163.812 170.465 160.599 173.992 156.636 176.443C152.673 178.894 148.117 180.173 143.48 180.136C138.734 180.11 134.077 178.814 129.979 176.379C125.88 173.943 122.482 170.453 120.127 166.259C117.931 162.416 116.705 158.08 116.557 153.636C116.411 150.191 116.955 146.752 118.156 143.528C119.356 140.303 121.189 137.361 123.541 134.879C125.894 132.398 128.718 130.429 131.841 129.092C134.964 127.756 138.322 127.079 141.71 127.104C148.69 127.155 155.383 129.939 160.398 134.88C165.413 139.821 168.365 146.538 168.641 153.636Z" fill="white"/>
<path opacity="0.6" d="M165.9 166.259C163.796 170.465 160.583 173.992 156.62 176.443C152.657 178.894 148.101 180.173 143.464 180.136C138.718 180.11 134.062 178.814 129.963 176.379C125.864 173.943 122.467 170.453 120.112 166.259C126.793 161.623 134.698 159.159 142.785 159.192C151.001 159.21 159.034 161.666 165.9 166.259Z" fill="#407BFF"/>
<path opacity="0.6" d="M150.71 152.975C155.126 148.403 154.939 140.926 150.29 136.275C145.642 131.625 138.293 131.561 133.876 136.134C129.46 140.706 129.647 148.183 134.296 152.834C138.944 157.484 146.293 157.548 150.71 152.975Z" fill="#407BFF"/>
<path d="M180.531 218.093H108.973L108.491 203.621H180.049L180.531 218.093Z" fill="white"/>
<path d="M181.4 243.958H109.834L109.352 229.486H180.918L181.4 243.958Z" fill="white"/>
<path d="M153.781 231.48L136.536 233.892C136.371 233.911 136.212 233.964 136.069 234.049C135.926 234.133 135.801 234.247 135.703 234.383C135.605 234.519 135.536 234.674 135.5 234.839C135.464 235.003 135.461 235.173 135.493 235.339L137.76 247.101C137.834 247.447 138.033 247.751 138.316 247.955C138.6 248.159 138.948 248.247 139.293 248.203L156.539 245.791C156.703 245.77 156.861 245.715 157.003 245.629C157.146 245.543 157.269 245.428 157.366 245.292C157.463 245.155 157.532 245 157.567 244.836C157.603 244.671 157.605 244.501 157.573 244.336L155.314 232.573C155.24 232.228 155.041 231.925 154.757 231.722C154.473 231.52 154.125 231.433 153.781 231.48ZM148.828 243.395L145.668 243.821L145.36 240.026C145.034 239.883 144.747 239.662 144.523 239.382C144.299 239.102 144.145 238.772 144.072 238.418C144.014 238.144 144.013 237.861 144.07 237.587C144.126 237.313 144.238 237.054 144.399 236.826C144.56 236.599 144.766 236.408 145.003 236.267C145.241 236.126 145.505 236.037 145.779 236.006C146.34 235.933 146.908 236.076 147.37 236.408C147.832 236.74 148.155 237.236 148.275 237.799C148.344 238.139 148.323 238.491 148.214 238.82C148.106 239.149 147.915 239.443 147.659 239.672L148.828 243.395Z" fill="#407BFF"/>
<path d="M152.075 230.844C151.77 230.884 151.462 230.806 151.21 230.626C150.959 230.446 150.783 230.177 150.716 229.872L150.495 228.722C150.179 227.153 149.315 225.754 148.063 224.784C146.811 223.814 145.255 223.339 143.685 223.448C142.893 223.494 142.12 223.713 141.418 224.09C140.716 224.467 140.102 224.993 139.618 225.633C139.134 226.273 138.791 227.011 138.612 227.798C138.433 228.585 138.423 229.402 138.582 230.193L138.835 231.52C138.864 231.667 138.863 231.818 138.832 231.965C138.8 232.112 138.739 232.25 138.652 232.371C138.565 232.492 138.454 232.593 138.326 232.668C138.199 232.743 138.057 232.79 137.91 232.806C137.605 232.85 137.295 232.773 137.042 232.593C136.79 232.412 136.615 232.141 136.552 231.833L136.338 230.716C136.121 229.671 136.114 228.593 136.317 227.546C136.52 226.498 136.929 225.504 137.519 224.621C138.11 223.739 138.869 222.987 139.752 222.411C140.635 221.835 141.624 221.446 142.658 221.269C144.901 220.885 147.203 221.396 149.085 222.694C150.968 223.992 152.288 225.978 152.77 228.239L153.023 229.558C153.052 229.707 153.051 229.86 153.018 230.008C152.985 230.157 152.922 230.296 152.832 230.417C152.743 230.539 152.629 230.64 152.498 230.713C152.368 230.787 152.224 230.832 152.075 230.844Z" fill="#407BFF"/>
<path d="M169.589 264.227H123.003L122.695 254.804H169.273L169.589 264.227Z" fill="#407BFF"/>
<path d="M147.114 210.857C147.128 211.201 147.073 211.544 146.953 211.865C146.832 212.187 146.649 212.48 146.414 212.727C146.18 212.975 145.898 213.171 145.586 213.304C145.275 213.437 144.94 213.505 144.602 213.502C143.905 213.497 143.237 213.219 142.736 212.727C142.234 212.235 141.938 211.565 141.908 210.857C141.894 210.513 141.949 210.17 142.069 209.849C142.189 209.527 142.372 209.234 142.607 208.987C142.842 208.739 143.124 208.543 143.435 208.41C143.747 208.277 144.082 208.209 144.42 208.212C145.117 208.215 145.786 208.492 146.288 208.985C146.789 209.478 147.085 210.148 147.114 210.857Z" fill="#263238"/>
<path d="M135.88 210.857C135.895 211.201 135.841 211.544 135.721 211.866C135.601 212.188 135.418 212.482 135.183 212.73C134.948 212.977 134.666 213.174 134.354 213.306C134.042 213.439 133.706 213.506 133.368 213.502C132.672 213.497 132.005 213.219 131.505 212.726C131.005 212.234 130.71 211.565 130.682 210.857C130.668 210.513 130.723 210.17 130.843 209.849C130.963 209.527 131.146 209.234 131.381 208.987C131.616 208.739 131.898 208.543 132.209 208.41C132.521 208.277 132.856 208.209 133.194 208.212C133.89 208.215 134.558 208.493 135.059 208.985C135.559 209.478 135.854 210.149 135.88 210.857Z" fill="#263238"/>
<path d="M124.717 210.857C124.731 211.201 124.676 211.544 124.556 211.865C124.436 212.187 124.253 212.48 124.018 212.727C123.783 212.975 123.501 213.171 123.19 213.304C122.878 213.437 122.543 213.505 122.205 213.502C121.509 213.499 120.841 213.221 120.34 212.729C119.84 212.236 119.546 211.565 119.519 210.857C119.505 210.513 119.56 210.17 119.68 209.849C119.8 209.527 119.983 209.234 120.218 208.987C120.453 208.739 120.735 208.543 121.047 208.41C121.358 208.277 121.693 208.209 122.031 208.212C122.728 208.215 123.396 208.493 123.896 208.985C124.397 209.478 124.691 210.149 124.717 210.857Z" fill="#263238"/>
<path d="M158.308 210.857C158.322 211.201 158.267 211.544 158.147 211.865C158.027 212.187 157.844 212.48 157.609 212.727C157.374 212.975 157.092 213.171 156.78 213.304C156.469 213.437 156.134 213.505 155.796 213.502C155.1 213.499 154.431 213.221 153.931 212.729C153.43 212.236 153.136 211.565 153.11 210.857C153.098 210.514 153.155 210.173 153.277 209.853C153.398 209.533 153.583 209.242 153.818 208.997C154.054 208.752 154.336 208.558 154.647 208.427C154.959 208.297 155.293 208.231 155.63 208.236C156.321 208.241 156.984 208.516 157.482 209.004C157.98 209.491 158.276 210.155 158.308 210.857Z" fill="#263238"/>
<path d="M169.502 210.857C169.517 211.201 169.463 211.544 169.344 211.866C169.224 212.188 169.041 212.482 168.806 212.73C168.571 212.977 168.288 213.174 167.976 213.306C167.664 213.439 167.329 213.506 166.99 213.502C166.294 213.497 165.627 213.219 165.127 212.726C164.627 212.234 164.333 211.565 164.304 210.857C164.29 210.513 164.345 210.17 164.465 209.849C164.586 209.527 164.769 209.234 165.004 208.987C165.238 208.739 165.52 208.543 165.832 208.41C166.143 208.277 166.478 208.209 166.816 208.212C167.513 208.215 168.181 208.493 168.681 208.985C169.182 209.478 169.476 210.149 169.502 210.857Z" fill="#263238"/>
<path d="M263.789 140.121C264.84 141.842 265.717 143.482 266.617 145.194C267.518 146.907 268.331 148.627 269.129 150.388C270.757 153.953 272.105 157.645 273.158 161.427C273.301 161.901 273.403 162.408 273.522 162.898L273.696 163.646L273.782 164.016L273.885 164.627C274.063 166.013 273.98 167.421 273.64 168.776C273.095 170.879 272.265 172.895 271.175 174.765C269.226 178.165 266.869 181.306 264.16 184.116L260.834 181.559C262.504 178.436 263.989 175.214 265.282 171.911C265.858 170.456 266.264 168.937 266.491 167.385C266.563 166.911 266.542 166.427 266.428 165.962L266.112 164.981C265.985 164.579 265.867 164.177 265.717 163.767C264.515 160.45 263.125 157.207 261.553 154.054C259.973 150.838 258.275 147.622 256.576 144.551L263.789 140.121Z" fill="#FF8B7B"/>
<path d="M261.68 180.442L258.046 182.395L262.217 187.364C262.217 187.364 264.824 185.571 264.942 182.838L261.68 180.442Z" fill="#FF8B7B"/>
<path d="M253.171 185.459L257.635 189.069L262.217 187.364L258.046 182.395L253.171 185.459Z" fill="#FF8B7B"/>
<path d="M237.908 113.814C237.822 114.264 237.513 114.578 237.229 114.522C236.945 114.465 236.779 114.047 236.866 113.605C236.953 113.163 237.261 112.801 237.553 112.898C237.845 112.994 237.995 113.364 237.908 113.814Z" fill="#263238"/>
<path d="M237.553 114.586C236.757 115.845 235.795 116.987 234.693 117.979C234.953 118.253 235.269 118.467 235.618 118.606C235.967 118.745 236.341 118.805 236.716 118.783L237.553 114.586Z" fill="#FF5652"/>
<path d="M236.131 130.361V125.086L242.988 125.89C242.988 125.89 242.878 130.425 239.038 131.76L236.131 130.361Z" fill="#FF8B7B"/>
<path d="M238.106 121.291L242.933 122.706L243.02 125.93L236.163 125.086L238.106 121.291Z" fill="#FF8B7B"/>
<path opacity="0.2" d="M242.933 122.706L238.106 121.291L237.166 123.124C237.217 124.569 237.661 125.971 238.447 127.174C239.234 128.378 240.332 129.336 241.622 129.942C242.451 128.763 242.936 127.37 243.02 125.922L242.933 122.706Z" fill="black"/>
<path d="M240.01 111.668C240.061 111.666 240.11 111.65 240.152 111.622C240.194 111.593 240.227 111.553 240.248 111.506C240.269 111.459 240.276 111.407 240.269 111.356C240.261 111.305 240.24 111.257 240.207 111.217C239.93 110.898 239.581 110.652 239.191 110.498C238.801 110.344 238.38 110.287 237.964 110.333C237.896 110.345 237.835 110.383 237.795 110.441C237.755 110.498 237.739 110.569 237.75 110.638C237.762 110.708 237.8 110.771 237.856 110.813C237.912 110.855 237.982 110.873 238.051 110.864C238.38 110.831 238.713 110.878 239.021 111.003C239.329 111.127 239.603 111.325 239.82 111.579C239.845 111.606 239.874 111.628 239.906 111.643C239.939 111.658 239.974 111.666 240.01 111.668Z" fill="#263238"/>
<path d="M250.106 121.951C249.316 126.091 248.826 131.824 251.686 134.582C251.686 134.582 250.58 138.778 242.996 138.778C234.693 138.778 239.007 135.096 239.007 135.096C242.459 134.003 242.427 130.007 241.637 126.791L250.106 121.951Z" fill="#FF8B7B"/>
<path d="M253.227 137.347C253.969 136.286 253.938 132.917 253.148 132.322C251.876 131.365 246.417 131.14 239.078 132.861C239.868 136.125 238.169 137.83 238.169 137.83L253.227 137.347Z" fill="#407BFF"/>
<path d="M277.922 328.225C277.697 328.306 277.458 328.34 277.219 328.326C276.98 328.313 276.747 328.251 276.532 328.145C276.45 328.067 276.394 327.966 276.372 327.855C276.349 327.745 276.361 327.629 276.405 327.525C276.43 327.438 276.473 327.358 276.532 327.29C276.591 327.222 276.663 327.168 276.745 327.131C277.495 326.762 279.218 327.477 279.297 327.509C279.32 327.519 279.34 327.536 279.354 327.557C279.368 327.579 279.376 327.604 279.376 327.63C279.375 327.656 279.369 327.681 279.356 327.704C279.344 327.726 279.326 327.745 279.304 327.759C278.859 327.958 278.396 328.114 277.922 328.225ZM277.014 327.316C276.961 327.329 276.911 327.348 276.863 327.373C276.814 327.391 276.77 327.421 276.734 327.46C276.698 327.499 276.672 327.546 276.658 327.598C276.587 327.839 276.658 327.919 276.705 327.944C277.006 328.201 278.112 327.943 278.894 327.646C278.299 327.395 277.657 327.283 277.014 327.316Z" fill="#407BFF"/>
<path d="M279.273 327.767H279.21C278.578 327.582 277.235 326.609 277.219 325.974C277.218 325.873 277.252 325.775 277.313 325.696C277.375 325.617 277.462 325.562 277.559 325.54C277.652 325.504 277.753 325.49 277.852 325.498C277.952 325.506 278.049 325.537 278.135 325.588C278.878 325.974 279.352 327.533 279.368 327.606C279.379 327.625 279.385 327.648 279.385 327.67C279.385 327.693 279.379 327.715 279.368 327.735C279.356 327.747 279.341 327.757 279.324 327.762C279.308 327.768 279.29 327.769 279.273 327.767ZM277.693 325.765H277.63C277.472 325.821 277.472 325.901 277.472 325.942C277.472 326.319 278.372 327.083 279.052 327.389C278.886 326.939 278.522 326.046 278.041 325.781C277.934 325.731 277.812 325.725 277.701 325.765H277.693Z" fill="#407BFF"/>
<path d="M236.889 329.174C236.178 329.174 235.491 329.069 235.262 328.747C235.202 328.662 235.17 328.559 235.17 328.454C235.17 328.349 235.202 328.246 235.262 328.161C235.307 328.082 235.368 328.014 235.44 327.96C235.512 327.906 235.594 327.867 235.681 327.847C236.605 327.59 238.548 328.715 238.627 328.764C238.652 328.776 238.671 328.796 238.683 328.821C238.694 328.845 238.697 328.874 238.691 328.9C238.688 328.928 238.676 328.954 238.658 328.974C238.639 328.994 238.615 329.008 238.588 329.013C238.028 329.117 237.459 329.171 236.889 329.174ZM236.013 328.072C235.929 328.058 235.843 328.058 235.76 328.072C235.706 328.083 235.655 328.106 235.611 328.137C235.566 328.169 235.528 328.21 235.499 328.257C235.404 328.426 235.444 328.506 235.499 328.555C235.76 328.924 237.158 328.932 238.193 328.78C237.517 328.404 236.777 328.164 236.013 328.072Z" fill="#407BFF"/>
<path d="M238.58 329.013H238.525C237.853 328.707 236.526 327.485 236.629 326.842C236.629 326.689 236.755 326.504 237.118 326.472C237.248 326.457 237.38 326.469 237.505 326.507C237.63 326.546 237.746 326.611 237.845 326.697C238.352 327.313 238.655 328.075 238.714 328.876C238.714 328.899 238.709 328.922 238.699 328.943C238.69 328.963 238.676 328.982 238.659 328.997C238.635 329.009 238.607 329.015 238.58 329.013ZM237.221 326.721H237.142C236.905 326.721 236.889 326.834 236.889 326.866C236.826 327.252 237.727 328.217 238.414 328.635C238.354 327.99 238.097 327.38 237.679 326.89C237.55 326.778 237.384 326.718 237.213 326.721H237.221Z" fill="#407BFF"/>
<path d="M244.679 328.884H239.125L238.572 315.787H244.126L244.679 328.884Z" fill="#FF8B7B"/>
<path d="M285.466 326.263L280.039 327.461L274.58 315.264L280.015 314.067L285.466 326.263Z" fill="#FF8B7B"/>
<path d="M279.51 326.906L285.617 325.564C285.723 325.541 285.835 325.555 285.932 325.605C286.03 325.654 286.108 325.736 286.154 325.837L288.271 330.516C288.327 330.63 288.357 330.755 288.356 330.882C288.356 331.009 288.326 331.134 288.269 331.247C288.212 331.36 288.129 331.458 288.028 331.532C287.927 331.606 287.81 331.655 287.686 331.674C285.553 332.1 284.487 332.205 281.809 332.792C280.158 333.162 276.429 334.086 274.146 334.585C271.863 335.083 271.081 332.856 271.973 332.446C275.963 330.589 277.622 328.957 278.704 327.437C278.9 327.166 279.187 326.977 279.51 326.906Z" fill="#263238"/>
<path d="M239.165 328.225H245.232C245.342 328.226 245.449 328.264 245.535 328.334C245.621 328.404 245.681 328.502 245.706 328.611L246.804 333.636C246.836 333.757 246.84 333.885 246.815 334.008C246.79 334.131 246.737 334.247 246.66 334.345C246.583 334.444 246.485 334.523 246.372 334.575C246.26 334.628 246.137 334.653 246.014 334.649C243.826 334.609 240.666 334.48 237.916 334.48C234.693 334.48 231.92 334.657 228.144 334.657C225.861 334.657 225.229 332.309 226.185 332.092C230.53 331.127 234.085 331.023 237.837 328.667C238.232 328.399 238.691 328.246 239.165 328.225Z" fill="#263238"/>
<path d="M261.624 135.876C266.83 137.09 271.104 150.621 271.104 150.621L260.7 158.718C257.999 155.779 256.094 152.178 255.17 148.266C253.329 141.174 256.3 134.622 261.624 135.876Z" fill="#407BFF"/>
<path opacity="0.4" d="M261.624 135.876C266.83 137.09 271.104 150.621 271.104 150.621L260.7 158.718C257.999 155.779 256.094 152.178 255.17 148.266C253.329 141.174 256.3 134.622 261.624 135.876Z" fill="black"/>
<path d="M234.235 152.012C232.939 153.435 231.644 154.706 230.285 156.032C229.613 156.675 228.934 157.319 228.239 157.938L227.188 158.878L226.927 159.112L226.477 159.481C226.014 159.858 225.5 160.167 224.953 160.398C224.343 160.661 223.687 160.798 223.025 160.8C222.459 160.802 221.897 160.702 221.366 160.502C220.777 160.274 220.239 159.927 219.786 159.481C219.207 158.906 218.783 158.189 218.553 157.399C218.434 157.01 218.357 156.608 218.324 156.201C218.283 155.725 218.283 155.246 218.324 154.77C218.364 154.384 218.411 154.046 218.474 153.733C218.691 152.637 218.997 151.561 219.391 150.517C219.746 149.525 220.155 148.553 220.615 147.606C221.121 146.585 221.603 145.838 222.085 144.985C224.042 141.722 226.276 138.639 228.76 135.771C231.22 132.921 233.93 130.305 236.858 127.957L239.765 131.004C237.727 133.786 235.72 136.768 233.864 139.703C232.016 142.621 230.328 145.641 228.808 148.748C228.468 149.504 228.018 150.356 227.804 150.967C227.522 151.677 227.277 152.401 227.07 153.138C226.871 153.801 226.72 154.478 226.619 155.164C226.614 155.271 226.614 155.378 226.619 155.486C226.619 155.55 226.619 155.582 226.619 155.413C226.606 155.233 226.572 155.055 226.517 154.883C226.346 154.313 226.033 153.797 225.608 153.387C225.23 153.034 224.787 152.761 224.305 152.583C223.881 152.42 223.431 152.335 222.978 152.334C222.541 152.328 222.109 152.413 221.706 152.583C221.569 152.64 221.437 152.707 221.311 152.784L221.611 152.503L222.567 151.618L224.455 149.817C225.703 148.619 226.959 147.341 228.144 146.151L234.235 152.012Z" fill="#FF8B7B"/>
<path opacity="0.2" d="M257.161 145.813C259.989 148.66 260.913 153.853 261.111 158.356L260.653 158.718C257.952 155.779 256.047 152.178 255.123 148.266C255.02 147.847 254.925 147.462 254.854 147.003L257.161 145.813Z" fill="black"/>
<path d="M228.713 141.504C227.575 147.614 226.864 160.165 230.159 185.008H259.91C260.115 180.369 257.248 157.713 261.648 135.836C258.36 135.193 255.035 134.766 251.694 134.557C247.484 134.312 243.264 134.312 239.054 134.557C237.664 134.686 236.289 134.895 235.104 135.112C233.528 135.394 232.073 136.155 230.932 137.297C229.791 138.438 229.017 139.905 228.713 141.504Z" fill="#407BFF"/>
<path opacity="0.4" d="M228.713 141.504C227.575 147.614 226.864 160.165 230.159 185.008H259.91C260.115 180.369 257.248 157.713 261.648 135.836C258.36 135.193 255.035 134.766 251.694 134.557C247.484 134.312 243.264 134.312 239.054 134.557C237.664 134.686 236.289 134.895 235.104 135.112C233.528 135.394 232.073 136.155 230.932 137.297C229.791 138.438 229.017 139.905 228.713 141.504Z" fill="black"/>
<path opacity="0.2" d="M233.263 150.565L227.891 149.255C227.725 152.567 227.71 156.667 227.947 161.741C230.419 158.878 233.579 154.408 233.263 150.565Z" fill="black"/>
<path opacity="0.2" d="M238.572 315.787L238.857 322.541H244.418L244.134 315.787H238.572Z" fill="black"/>
<path opacity="0.2" d="M280.016 314.067L274.58 315.264L277.393 321.552L282.828 320.354L280.016 314.067Z" fill="black"/>
<path d="M252.745 115.905C251.323 121.324 250.754 124.572 247.467 126.823C242.53 130.248 236.368 126.324 236.21 120.6C236.036 115.43 238.398 107.43 244.11 106.337C245.365 106.097 246.66 106.187 247.871 106.597C249.083 107.007 250.172 107.725 251.036 108.682C251.9 109.639 252.51 110.805 252.809 112.068C253.108 113.332 253.086 114.652 252.745 115.905Z" fill="#FF8B7B"/>
<path d="M240.279 116.106C240.01 115.382 238.785 109.778 239.939 108.323C241.092 106.868 254.246 107.921 256.189 109.867C259.42 113.083 257.177 115.977 253.645 119.7C250.991 122.497 250.888 125.649 249.545 126.132C247.175 126.936 243.557 126.18 242.83 123.631C242.103 121.082 240.279 116.106 240.279 116.106Z" fill="#263238"/>
<path d="M254.593 103.491C249.948 101.481 241.234 103.708 236.526 102.55C236.466 104.332 237.042 106.076 238.147 107.459C239.252 108.842 240.812 109.772 242.538 110.076C246.444 110.833 250.412 111.207 254.388 111.193C259.554 110.952 258.543 105.203 254.593 103.491Z" fill="#263238"/>
<path d="M255.32 110.035C257.017 110.205 258.726 109.873 260.242 109.079C261.111 111.217 256.331 111.804 255.32 110.035Z" fill="#263238"/>
<path d="M242.806 116.331C242.7 117.725 242.144 119.045 241.226 120.085C240.01 121.444 238.746 120.592 238.533 118.944C238.343 117.448 238.738 114.924 240.223 114.2C241.708 113.476 242.909 114.65 242.806 116.331Z" fill="#FF8B7B"/>
<path d="M240.705 185.033C240.705 185.033 247.025 228.248 250.477 244.44C254.262 262.168 274.596 320.82 274.596 320.82L284.542 318.625C284.542 318.625 270.322 270.819 267.162 246.032C264.713 226.993 259.902 185.016 259.902 185.016L240.705 185.033Z" fill="#407BFF"/>
<path d="M272.21 317.451C272.171 317.451 274.067 321.118 274.067 321.118L285.253 318.649L284.313 315.224L272.21 317.451Z" fill="#263238"/>
<path opacity="0.3" d="M244.695 200.429C251.986 201.884 251.212 229.558 250.335 243.797C248.234 233.731 245.153 214.37 243.051 200.63C243.561 200.374 244.14 200.303 244.695 200.429Z" fill="black"/>
<path d="M230.159 185.033C230.159 185.033 229.369 227.315 230.001 244.529C230.633 262.466 236.787 321.198 236.787 321.198H246.203C246.203 321.198 246.543 263.511 246.993 245.895C247.452 226.696 249.727 185 249.727 185L230.159 185.033Z" fill="#407BFF"/>
<path d="M234.978 317.419C234.93 317.419 235.507 321.391 235.507 321.391H246.954L247.27 317.845L234.978 317.419Z" fill="#263238"/>
<path d="M240.357 143.385C243.02 150.694 227.37 159.305 227.37 159.305L220.592 150.461C220.592 150.461 225.15 141.279 230.68 137.146C237.513 132.049 238.327 137.822 240.357 143.385Z" fill="#407BFF"/>
<path opacity="0.4" d="M240.357 143.385C243.02 150.694 227.37 159.305 227.37 159.305L220.592 150.461C220.592 150.461 225.15 141.279 230.68 137.146C237.513 132.049 238.327 137.822 240.357 143.385Z" fill="black"/>
<path d="M301.677 87.9014C317.424 87.9014 330.188 79.6222 330.188 69.4094C330.188 59.1965 317.424 50.9174 301.677 50.9174C285.931 50.9174 273.166 59.1965 273.166 69.4094C273.166 79.6222 285.931 87.9014 301.677 87.9014Z" fill="#407BFF"/>
<path d="M291.391 78.7196C289.513 78.7135 287.697 78.0338 286.263 76.8002C284.828 75.5665 283.866 73.8577 283.547 71.9741C283.233 69.9337 283.685 67.8478 284.813 66.1314C285.942 64.4151 287.665 63.1943 289.638 62.712C291.257 62.3323 292.952 62.4786 294.486 63.1305C296.019 63.7823 297.313 64.9069 298.186 66.3461L316.49 62.5029C317.193 62.3462 317.929 62.4652 318.55 62.8363C319.171 63.2074 319.631 63.8033 319.839 64.5049C319.935 64.8738 319.956 65.2586 319.901 65.636C319.845 66.0133 319.715 66.3752 319.518 66.6996C319.32 67.0239 319.06 67.3039 318.753 67.5223C318.445 67.7408 318.097 67.8932 317.73 67.9701L317.256 68.0666C317.186 68.0795 317.119 68.1086 317.062 68.1519C317.004 68.1951 316.957 68.2512 316.924 68.3159C316.895 68.3815 316.88 68.4528 316.88 68.5249C316.88 68.597 316.895 68.6683 316.924 68.7339L317.248 69.5862C317.357 69.8624 317.367 70.1685 317.278 70.4518C317.188 70.735 317.005 70.9777 316.758 71.1379C316.564 71.26 316.4 71.4256 316.278 71.622C316.156 71.8185 316.08 72.0406 316.055 72.2715C316.032 72.5366 315.927 72.7874 315.755 72.9881C315.584 73.1888 315.354 73.3291 315.099 73.3891L314.728 73.4695C314.471 73.5179 314.205 73.4817 313.969 73.366C313.733 73.2504 313.54 73.0613 313.417 72.8263C313.253 72.5459 313.007 72.3245 312.713 72.1931C312.42 72.0616 312.093 72.0267 311.78 72.093C311.466 72.1594 311.18 72.3238 310.962 72.5634C310.744 72.8029 310.605 73.1056 310.565 73.4293C310.543 73.6927 310.439 73.9421 310.269 74.1415C310.098 74.3409 309.87 74.4801 309.617 74.5388L309.246 74.6192C308.988 74.6664 308.723 74.6295 308.487 74.514C308.252 74.3985 308.058 74.2102 307.934 73.976C307.816 73.7766 307.656 73.6058 307.467 73.4753C307.277 73.3448 307.062 73.2578 306.836 73.2203C306.532 73.1831 306.252 73.0343 306.049 72.8019C305.845 72.5694 305.732 72.2694 305.73 71.958V71.0414C305.727 70.9697 305.708 70.8996 305.676 70.8358C305.644 70.772 305.598 70.716 305.543 70.6717C305.487 70.6274 305.423 70.5959 305.355 70.5792C305.286 70.5625 305.215 70.5611 305.145 70.5751L299.307 71.7972C299.069 73.4433 298.339 74.9747 297.215 76.1831C296.091 77.3915 294.629 78.2182 293.027 78.5508C292.489 78.6628 291.941 78.7193 291.391 78.7196ZM289.811 63.4436C288.02 63.8696 286.453 64.9707 285.427 66.5251C284.401 68.0796 283.992 69.972 284.281 71.8213C284.592 73.5418 285.498 75.0922 286.834 76.1923C288.17 77.2923 289.85 77.8693 291.568 77.8187C293.286 77.7682 294.929 77.0936 296.201 75.9169C297.473 74.7402 298.289 73.1391 298.501 71.4032V71.1138L304.94 69.7872C305.125 69.7417 305.317 69.7387 305.503 69.7783C305.689 69.8179 305.864 69.8991 306.015 70.0162C306.167 70.1332 306.29 70.283 306.378 70.4548C306.465 70.6266 306.514 70.816 306.52 71.0093V71.9258C306.522 72.0349 306.56 72.1401 306.63 72.2236C306.699 72.3071 306.794 72.3638 306.899 72.3841C307.245 72.4345 307.574 72.5641 307.863 72.7633C308.152 72.9625 308.392 73.226 308.566 73.5338C308.608 73.6206 308.675 73.692 308.759 73.738C308.842 73.7841 308.938 73.8027 309.032 73.7911L309.396 73.7107C309.488 73.6866 309.57 73.6329 309.63 73.5576C309.689 73.4823 309.724 73.3894 309.727 73.2926C309.777 72.7921 309.982 72.3207 310.312 71.9465C310.643 71.5722 311.081 71.3146 311.565 71.2108C312.049 71.107 312.552 71.1623 313.003 71.3689C313.454 71.5755 313.828 71.9226 314.072 72.36C314.113 72.4461 314.179 72.5172 314.261 72.5633C314.343 72.6094 314.437 72.6283 314.531 72.6173L314.91 72.5369C315 72.5113 315.081 72.4569 315.139 72.3818C315.197 72.3066 315.23 72.2145 315.234 72.1188C315.273 71.7658 315.391 71.4265 315.578 71.127C315.766 70.8274 316.018 70.5754 316.316 70.3902C316.403 70.3263 316.467 70.2346 316.497 70.1298C316.527 70.0249 316.522 69.9128 316.482 69.8113L316.158 68.9591C316.091 68.7834 316.063 68.5949 316.075 68.4068C316.087 68.2188 316.139 68.0357 316.228 67.8703C316.316 67.7049 316.44 67.5612 316.589 67.4493C316.738 67.3374 316.909 67.26 317.09 67.2224L317.572 67.1179C317.833 67.0613 318.08 66.9518 318.298 66.7958C318.516 66.6399 318.701 66.4407 318.842 66.2103C318.983 65.9798 319.077 65.7229 319.118 65.4547C319.159 65.1866 319.146 64.9127 319.081 64.6496C318.927 64.1437 318.59 63.7157 318.139 63.4518C317.688 63.1878 317.155 63.1074 316.648 63.2265L297.83 67.2063L297.688 66.9571C296.932 65.5873 295.758 64.5052 294.344 63.8742C292.93 63.2433 291.353 63.0978 289.851 63.4597L289.811 63.4436ZM291.391 75.7287C290.41 75.7399 289.447 75.4605 288.619 74.9247C287.639 74.2702 286.913 73.2901 286.564 72.1516C286.215 71.0131 286.264 69.7866 286.704 68.6813C287.145 67.5759 287.948 66.6601 288.977 66.0899C290.006 65.5198 291.198 65.3306 292.349 65.5547C293.5 65.7788 294.539 66.4022 295.289 67.3186C296.039 68.2351 296.453 69.3879 296.461 70.5805C296.47 71.7732 296.071 72.9318 295.334 73.8588C294.597 74.7859 293.566 75.424 292.418 75.6644C292.082 75.7264 291.741 75.7533 291.399 75.7448L291.391 75.7287ZM291.391 66.2335C291.097 66.2352 290.804 66.2648 290.515 66.3219C289.964 66.4413 289.442 66.6697 288.979 66.9943C288.515 67.3189 288.119 67.7332 287.813 68.2136C287.506 68.694 287.296 69.2312 287.194 69.7943C287.091 70.3574 287.099 70.9356 287.216 71.4957C287.334 72.0558 287.558 72.5869 287.877 73.0588C288.196 73.5306 288.603 73.9338 289.075 74.2455C289.547 74.5572 290.075 74.7713 290.628 74.8754C291.182 74.9795 291.75 74.9717 292.3 74.8524C293.126 74.6773 293.883 74.2573 294.475 73.6451C295.067 73.033 295.468 72.2562 295.626 71.4127C295.785 70.5692 295.695 69.6967 295.368 68.9052C295.04 68.1137 294.489 67.4387 293.785 66.9651C293.086 66.4918 292.263 66.2425 291.423 66.2496L291.391 66.2335Z" fill="white"/>
<path opacity="0.6" d="M278.475 98.7473C283.65 98.7473 287.844 96.026 287.844 92.6691C287.844 89.3121 283.65 86.5908 278.475 86.5908C273.3 86.5908 269.106 89.3121 269.106 92.6691C269.106 96.026 273.3 98.7473 278.475 98.7473Z" fill="#407BFF"/>
<path opacity="0.3" d="M263.568 101.24C265.693 101.24 267.415 100.124 267.415 98.7473C267.415 97.3708 265.693 96.2549 263.568 96.2549C261.443 96.2549 259.72 97.3708 259.72 98.7473C259.72 100.124 261.443 101.24 263.568 101.24Z" fill="#407BFF"/>
</svg>